<?xml version="1.0" standalone="no"?>
<!DOCTYPE svg PUBLIC "-//W3C//DTD SVG 20010904//EN"
 "http://www.w3.org/TR/2001/REC-SVG-20010904/DTD/svg10.dtd">
<svg version="1.0" xmlns="http://www.w3.org/2000/svg"
 width="300.000000pt" height="151.000000pt" viewBox="0 0 300.000000 151.000000"
 preserveAspectRatio="xMidYMid meet">
<metadata>
Created by potrace 1.10, written by Peter Selinger 2001-2011
</metadata>
<g transform="translate(0.000000,151.000000) scale(0.100000,-0.100000)"
fill="#000000" stroke="none">
<path d="M277 1489 c-8 -30 -1 -36 20 -17 19 16 43 13 55 -6 5 -8 8 -7 8 2 0
7 13 12 31 12 17 0 28 4 24 10 -3 6 -1 10 5 10 8 0 10 -10 6 -27 -4 -16 -3
-23 1 -17 5 6 25 9 46 6 44 -5 65 -38 47 -73 -12 -22 -21 -24 -39 -6 -11 10
-11 8 -2 -11 10 -20 9 -23 -13 -32 -14 -5 -37 -5 -55 0 -17 4 -39 6 -51 3 -21
-6 -23 -1 -24 79 -1 21 -4 38 -8 38 -5 0 -12 0 -18 0 -9 0 -4 -65 7 -82 2 -5
0 -8 -5 -8 -6 0 -8 -9 -5 -19 4 -16 1 -19 -16 -14 -15 4 -21 1 -21 -11 0 -18
39 -19 52 -2 4 6 12 6 20 -1 7 -6 46 -13 87 -17 62 -5 72 -4 68 9 -8 19 28 44
54 38 10 -3 19 -11 19 -19 0 -7 14 -20 30 -29 32 -16 40 -6 20 25 -8 12 -10
12 -10 1 0 -11 -3 -11 -15 -1 -8 7 -12 16 -9 21 3 5 -1 10 -8 10 -28 3 -33 4
-35 12 -7 19 -1 27 20 28 l22 0 -22 9 c-23 9 -33 50 -13 50 6 0 10 -4 10 -10
0 -16 47 -12 54 5 3 8 0 15 -7 16 -7 0 -23 2 -37 5 -14 2 -44 4 -67 4 -23 1
-49 7 -57 15 -16 17 -91 21 -81 5 4 -6 -5 -10 -19 -10 -14 0 -26 6 -26 13 0 8
-4 7 -10 -3 -8 -12 -12 -13 -19 -2 -6 10 -10 8 -14 -9z"/>
<path d="M720 1500 c0 -5 5 -10 11 -10 5 0 7 -5 4 -10 -4 -6 -12 -7 -18 -3 -7
3 -3 -3 7 -15 19 -22 19 -23 0 -36 -11 -8 -15 -18 -10 -23 5 -4 11 -2 13 5 3
6 11 12 19 12 16 0 19 16 4 25 -5 3 -7 19 -3 35 4 23 2 30 -11 30 -9 0 -16 -4
-16 -10z"/>
<path d="M819 1481 c12 -16 21 -36 21 -45 0 -9 4 -16 9 -16 17 0 40 -30 35
-44 -6 -16 -47 -36 -74 -36 -11 0 -20 9 -23 23 -2 12 -4 3 -4 -21 0 -31 3 -39
9 -28 5 9 13 14 19 11 5 -4 42 14 82 39 41 25 79 46 85 46 6 0 9 7 6 15 -5 13
-8 13 -21 0 -20 -21 -40 -19 -53 5 -6 11 -16 20 -22 20 -6 0 -1 -11 12 -25 19
-20 21 -28 12 -37 -10 -10 -14 -8 -18 10 -4 12 -13 22 -20 22 -9 0 -14 11 -14
30 0 22 -4 28 -15 24 -10 -4 -15 0 -15 15 0 12 -6 21 -16 21 -13 0 -12 -5 5
-29z"/>
<path d="M934 1493 c1 -13 -6 -17 -24 -16 -14 1 -19 -1 -12 -3 6 -3 12 -11 12
-19 0 -19 24 -35 39 -26 11 7 9 11 -5 20 -17 9 -17 10 6 11 14 1 19 4 13 7 -7
2 -13 13 -13 24 0 10 -4 19 -9 19 -5 0 -8 -8 -7 -17z"/>
<path d="M1115 1500 c6 -9 -37 -15 -72 -11 -7 1 -13 -3 -13 -10 0 -8 -4 -8
-15 1 -8 6 -19 10 -25 8 -6 -2 4 -12 21 -22 18 -10 29 -14 25 -7 -4 6 -1 11 8
11 8 0 22 3 30 6 11 4 15 2 13 -7 -2 -8 -2 -11 0 -6 3 4 13 7 24 7 10 0 19 7
19 15 0 8 8 15 18 15 14 0 15 -2 2 -10 -8 -5 -10 -10 -4 -10 5 0 14 4 20 9 5
5 27 11 49 14 25 2 12 4 -33 5 -47 1 -71 -2 -67 -8z"/>
<path d="M1358 1503 c12 -2 22 -11 22 -19 0 -8 5 -12 10 -9 6 4 8 10 5 15 -3
4 1 11 7 13 7 3 -5 5 -27 5 -22 0 -30 -3 -17 -5z"/>
<path d="M1968 1453 c4 -52 5 -54 21 -36 9 10 17 28 18 41 2 24 -12 30 -21 10
-3 -7 -5 -1 -3 13 2 14 -1 26 -7 26 -7 0 -10 -20 -8 -54z"/>
<path d="M2028 1494 c5 -8 7 -38 4 -65 -3 -40 -1 -49 12 -49 19 0 21 31 4 48
-8 8 -8 15 0 25 17 20 11 57 -11 57 -13 0 -16 -4 -9 -16z"/>
<path d="M2121 1428 c-1 -96 21 -177 42 -156 15 13 20 71 7 63 -6 -4 -11 -18
-11 -33 -2 -31 -15 37 -28 143 l-8 70 -2 -87z"/>
<path d="M2240 1496 c0 -8 5 -18 12 -22 8 -5 9 -2 5 9 -5 14 0 15 36 10 64
-10 90 -9 94 3 3 8 -21 12 -72 13 -60 1 -75 -2 -75 -13z"/>
<path d="M2451 1478 c-1 -41 -5 -39 79 -42 l45 -1 3 -49 c4 -63 -6 -73 -52
-51 -26 13 -36 24 -36 41 0 13 -4 24 -10 24 -5 0 -10 8 -10 17 0 25 -10 10
-16 -23 -3 -22 -2 -25 6 -14 8 12 10 11 10 -8 0 -12 7 -25 15 -28 8 -4 12 -10
9 -15 -3 -5 -13 -5 -24 1 -10 5 -32 10 -49 10 -20 0 -31 6 -34 18 -4 16 -5 16
-6 -1 -1 -13 -7 -17 -18 -13 -10 3 -31 8 -46 12 -27 6 -28 8 -25 62 2 37 -1
56 -9 59 -8 3 -13 -4 -13 -17 0 -12 -4 -19 -9 -15 -13 8 -25 -35 -13 -47 7 -7
10 -4 9 7 -1 10 4 20 11 22 8 3 12 -7 12 -31 0 -53 47 -87 104 -77 23 5 66 3
126 -5 46 -7 75 -6 100 3 46 16 103 16 118 1 17 -17 15 -64 -4 -82 -8 -9 -27
-16 -41 -16 -15 0 -24 -3 -20 -6 8 -8 177 16 175 24 -1 4 2 15 6 25 10 21 46
23 46 2 0 -8 9 -15 20 -15 11 0 20 -6 20 -12 0 -7 5 -5 11 5 8 13 18 17 35 13
14 -4 24 -2 24 4 0 7 -18 10 -47 8 -52 -3 -88 18 -77 47 4 8 1 15 -5 15 -6 0
-11 -7 -11 -15 0 -7 -6 -18 -13 -22 -8 -4 -16 -16 -20 -25 -3 -10 -15 -18 -26
-18 -11 0 -26 -3 -35 -6 -14 -5 -16 3 -16 56 0 39 -4 59 -10 55 -6 -4 -36 -10
-68 -15 -31 -4 -66 -12 -77 -16 -17 -6 -18 -5 -8 7 6 8 10 30 8 49 -1 19 3 38
9 42 7 5 3 8 -9 8 -14 0 -8 7 23 26 23 14 42 29 42 34 0 5 15 11 33 13 23 3
18 4 -18 5 -30 1 -45 -2 -37 -7 10 -6 7 -12 -12 -25 -19 -12 -26 -13 -26 -4
-1 8 -6 6 -14 -5 -11 -14 -21 -16 -42 -11 -16 4 -40 8 -54 8 -17 1 -26 8 -31
26 -6 21 -7 20 -8 -12z"/>
<path d="M2805 1466 c0 -25 4 -48 8 -52 4 -4 7 16 7 44 0 29 -3 52 -7 52 -5 0
-8 -20 -8 -44z"/>
<path d="M665 1480 c-3 -5 -1 -10 4 -10 6 0 11 -9 11 -20 0 -11 -7 -20 -15
-20 -14 0 -19 12 -16 33 2 16 -17 6 -21 -11 -4 -13 3 -22 23 -31 33 -14 49 -8
49 19 0 40 -20 64 -35 40z"/>
<path d="M1325 1476 c-11 -8 -25 -12 -32 -9 -7 3 -13 1 -13 -5 0 -5 9 -12 20
-15 13 -3 18 -1 14 6 -3 7 1 4 9 -5 18 -22 37 -23 37 -2 0 8 -4 13 -9 10 -5
-4 -7 3 -4 14 6 24 3 25 -22 6z"/>
<path d="M1900 1479 c0 -5 -4 -8 -9 -4 -5 3 -12 1 -15 -4 -4 -5 -2 -13 4 -16
8 -5 7 -11 -1 -21 -8 -10 -8 -14 0 -14 6 0 11 5 11 11 0 5 4 8 9 4 5 -3 12 -1
16 5 3 5 1 10 -4 10 -6 0 -11 5 -11 11 0 5 4 7 10 4 6 -3 7 1 4 9 -7 18 -14
21 -14 5z"/>
<path d="M2216 1453 c-4 -24 -12 -43 -17 -43 -5 0 -9 -8 -9 -18 0 -10 7 -19
15 -19 8 0 12 3 10 7 -2 4 0 24 6 44 6 20 9 45 6 54 -2 9 -7 -2 -11 -25z"/>
<path d="M1702 1449 c-16 -20 -21 -35 -16 -47 6 -14 9 -11 14 13 4 17 8 22 9
11 1 -15 3 -16 16 -6 11 9 12 15 5 20 -6 4 -8 14 -4 23 9 24 2 20 -24 -14z"/>
<path d="M1403 1459 c-8 -10 -10 -25 -4 -45 7 -23 10 -26 16 -12 3 9 5 29 3
44 -2 23 -5 25 -15 13z"/>
<path d="M2072 1415 c-1 -46 1 -55 8 -37 6 13 6 38 1 60 -8 35 -9 33 -9 -23z"/>
<path d="M1532 1440 c-12 -11 -26 -20 -31 -20 -6 0 -8 -6 -5 -14 5 -12 9 -12
26 2 18 16 43 52 35 52 -2 0 -13 -9 -25 -20z"/>
<path d="M1634 1449 c-3 -6 0 -16 7 -21 11 -7 11 -11 2 -15 -21 -8 -15 -22 7
-16 24 6 25 16 5 36 -11 12 -12 17 -2 20 9 4 9 6 0 6 -6 1 -15 -4 -19 -10z"/>
<path d="M1431 1423 c0 -16 -2 -38 -6 -50 -5 -15 -3 -23 5 -23 7 0 10 7 6 15
-3 8 -1 15 4 15 6 0 9 6 8 13 -2 6 3 11 10 9 9 -1 8 5 -4 23 -21 32 -25 31
-23 -2z"/>
<path d="M1766 1431 c-9 -14 4 -81 16 -81 5 0 6 18 3 43 -7 47 -10 53 -19 38z"/>
<path d="M807 1415 c-8 -8 -18 -11 -22 -7 -5 4 -5 2 -2 -4 4 -7 18 -14 33 -17
17 -3 22 -1 16 5 -6 6 -8 17 -5 24 7 18 -2 18 -20 -1z"/>
<path d="M1363 1390 c4 -18 7 -37 7 -42 0 -5 4 -7 8 -4 11 7 3 64 -11 73 -7 4
-8 -5 -4 -27z"/>
<path d="M2948 1406 c-23 -12 -93 -30 -123 -31 -5 0 -9 6 -7 14 2 8 -9 4 -27
-10 -34 -27 -41 -45 -11 -29 11 6 20 16 20 23 0 7 4 5 10 -4 17 -29 170 5 170
38 0 16 1 16 -32 -1z"/>
<path d="M1610 1378 c0 -11 -8 -13 -32 -10 -39 5 -33 -7 6 -14 26 -4 47 18 32
33 -3 4 -6 0 -6 -9z"/>
<path d="M702 1367 c-11 -12 -7 -17 19 -26 39 -13 39 -13 39 -1 0 6 -5 10 -11
10 -7 0 -17 7 -23 16 -11 14 -14 14 -24 1z"/>
<path d="M978 1335 c-32 -20 -58 -41 -58 -46 0 -6 5 -7 10 -4 6 3 10 1 10 -5
0 -7 -7 -9 -16 -6 -14 5 -52 -8 -64 -24 -9 -12 -85 -55 -92 -52 -5 1 -8 -2 -8
-6 0 -5 -25 -26 -55 -47 -31 -21 -58 -42 -62 -48 -7 -12 -14 -16 117 72 66 44
109 66 115 60 5 -5 17 -9 27 -9 19 0 24 -15 8 -23 -6 -3 -5 -4 2 -3 7 1 14 10
16 19 3 12 -6 19 -28 23 -17 4 -28 9 -25 12 10 11 70 10 83 0 7 -6 16 -8 20
-4 4 4 -1 13 -11 20 -9 7 -17 16 -17 20 0 19 92 80 104 69 3 -4 6 -31 7 -62 0
-31 3 -50 6 -43 7 18 33 15 33 -4 0 -9 -9 -18 -20 -21 -36 -9 -10 -23 41 -22
l49 2 -1 36 c-1 20 -3 28 -6 19 -4 -14 -8 -15 -29 -6 -17 8 -24 19 -24 39 0
18 -7 32 -20 39 -11 6 -19 16 -17 23 5 25 -40 16 -95 -18z"/>
<path d="M1864 1357 c-4 -7 -4 -9 1 -5 4 4 13 4 19 -1 7 -6 20 -5 34 3 23 12
23 13 -12 14 -19 1 -38 -4 -42 -11z"/>
<path d="M1981 1355 c-1 -11 8 -37 19 -57 11 -21 17 -44 14 -53 -3 -8 -1 -15
4 -15 6 0 12 -8 15 -17 2 -10 2 2 -1 27 -2 25 -10 52 -17 60 -7 8 -17 29 -23
45 -8 22 -11 25 -11 10z"/>
<path d="M2040 1318 c0 -55 11 -85 27 -75 11 7 -7 127 -19 127 -4 0 -8 -24 -8
-52z"/>
<path d="M2241 1350 c0 -8 3 -20 7 -25 9 -14 52 -17 52 -4 0 5 -11 9 -24 9
-15 0 -26 7 -29 18 -3 12 -5 13 -6 2z"/>
<path d="M1696 1335 c4 -8 10 -15 15 -15 5 0 6 -13 3 -30 -6 -29 -5 -30 27
-29 21 1 26 3 14 6 -35 9 -39 21 -14 42 22 18 22 19 4 18 -11 -1 -19 3 -17 11
1 6 -7 12 -18 12 -13 0 -18 -5 -14 -15z"/>
<path d="M84 1320 c-4 -14 -9 -33 -10 -42 -3 -32 -4 -33 -14 -18 -5 8 -10 11
-10 5 0 -5 4 -16 9 -23 6 -11 10 -10 16 5 4 10 9 24 11 32 1 8 7 17 12 20 5 3
6 15 2 26 -7 19 -8 18 -16 -5z"/>
<path d="M2207 1318 c-5 -15 2 -141 9 -147 2 -2 4 32 4 77 0 80 -3 95 -13 70z"/>
<path d="M718 1298 c-5 -27 17 -35 26 -11 3 8 10 11 16 8 5 -3 10 -1 10 5 0 7
-7 9 -17 6 -9 -4 -20 -2 -23 5 -4 6 -9 1 -12 -13z"/>
<path d="M1441 1306 c2 -2 22 -7 43 -10 22 -4 45 -11 53 -17 10 -9 13 -8 13 3
0 10 -14 18 -37 22 -44 7 -78 8 -72 2z"/>
<path d="M1590 1294 l-35 -12 35 -4 c27 -2 36 -8 38 -25 3 -18 -2 -23 -20 -23
-18 0 -20 -2 -8 -9 8 -6 17 -8 21 -5 4 2 10 -4 12 -13 3 -10 5 0 5 22 0 22 -3
49 -6 60 -6 18 -10 19 -42 9z"/>
<path d="M270 1287 c0 -7 9 -18 19 -24 15 -9 23 -9 37 2 11 8 15 15 9 15 -5 0
-3 5 5 10 10 7 11 10 2 10 -7 0 -15 -7 -18 -15 -4 -8 -12 -15 -20 -15 -8 0
-14 7 -14 15 0 8 -4 15 -10 15 -5 0 -10 -6 -10 -13z"/>
<path d="M1650 1287 c0 -17 20 -45 20 -29 0 6 7 12 16 12 20 0 9 16 -16 23
-12 3 -20 0 -20 -6z"/>
<path d="M2252 1288 c-7 -7 -12 -16 -12 -22 0 -5 3 -6 7 -3 3 4 12 2 20 -4 15
-13 18 -43 3 -34 -5 3 -10 2 -10 -4 0 -5 6 -12 13 -14 7 -3 5 -6 -5 -6 -13 -1
-18 7 -19 27 0 27 0 27 -10 3 -6 -16 -6 -28 1 -36 8 -9 7 -15 -2 -18 -11 -4
-11 -6 0 -6 10 -1 10 -6 -2 -23 -18 -26 -21 -42 -5 -33 6 4 10 1 8 -6 -4 -31
2 -49 16 -49 8 0 15 -6 16 -12 0 -7 4 -3 10 10 5 13 13 20 19 17 6 -4 8 -11 4
-16 -6 -11 -7 -139 -1 -146 2 -2 12 -1 21 3 15 6 15 8 2 23 -15 16 -20 117 -6
126 4 2 55 5 113 6 l107 3 -1 25 c0 14 -3 20 -6 13 -2 -6 -9 -10 -14 -7 -5 4
-6 -1 -3 -9 4 -10 1 -16 -7 -16 -19 1 -49 25 -49 39 0 6 -4 11 -9 11 -5 0 -7
-9 -4 -20 6 -23 -6 -26 -26 -7 -9 7 -11 7 -8 1 8 -14 -24 -29 -32 -16 -12 17
-41 21 -54 8 -10 -10 -17 -11 -28 -2 -36 29 -53 96 -24 96 8 0 15 5 15 10 0 6
15 10 33 11 l32 1 -32 10 c-22 7 -33 17 -33 29 0 11 -7 19 -16 19 -8 0 -12 5
-9 10 4 6 11 7 17 4 7 -4 8 -2 4 4 -9 15 -19 15 -34 0z"/>
<path d="M489 1247 c3 -31 5 -36 13 -24 5 10 6 22 3 28 -4 6 0 16 9 22 14 11
14 12 -6 13 -21 1 -23 -2 -19 -39z"/>
<path d="M2466 1279 c2 -4 -2 -9 -8 -12 -9 -3 -7 -10 7 -21 20 -15 20 -15 -3
-16 -13 0 -20 -4 -17 -10 12 -19 -25 -10 -45 12 -11 12 -20 16 -20 9 0 -7 -4
-9 -10 -6 -5 3 -10 0 -10 -9 0 -8 13 -17 28 -21 18 -4 28 -13 29 -26 1 -10 -2
-17 -8 -14 -5 4 -9 2 -9 -3 0 -6 6 -12 14 -15 9 -4 16 4 20 24 3 16 10 29 16
29 5 0 18 8 28 18 17 17 17 20 3 29 -24 16 -3 29 22 14 21 -13 22 -13 4 6 -16
18 -52 29 -41 12z"/>
<path d="M1291 1273 c4 -26 -2 -43 -13 -37 -10 6 -10 5 -1 -8 7 -8 9 -19 5
-23 -4 -5 -1 -5 6 -1 6 4 12 16 12 27 0 11 7 19 16 19 14 0 14 2 0 15 -16 16
-27 19 -25 8z"/>
<path d="M2580 1265 c-5 -35 -7 -50 -9 -59 0 -5 -7 -4 -13 1 -7 5 -20 9 -28 8
-8 -1 -23 -3 -33 -3 -35 -3 -8 -18 30 -17 103 3 119 5 100 16 -9 5 -22 7 -27
4 -14 -9 -12 9 2 23 8 8 9 12 1 12 -6 0 -14 8 -16 18 -4 15 -5 14 -7 -3z"/>
<path d="M394 1264 c-6 -3 -9 -16 -6 -29 2 -14 8 -22 14 -19 5 3 6 15 3 27 -5
19 -5 20 5 4 9 -13 15 -15 31 -7 10 6 19 15 19 20 0 10 -45 12 -66 4z"/>
<path d="M1010 1267 c0 -5 5 -18 11 -29 9 -17 8 -24 -5 -34 -10 -7 -13 -15 -7
-18 5 -4 15 3 21 14 8 15 7 27 -4 47 -8 16 -15 24 -16 20z"/>
<path d="M605 1249 c-4 -6 -13 -8 -21 -5 -8 3 -11 0 -7 -10 8 -22 42 -18 40 6
-1 23 -3 24 -12 9z"/>
<path d="M193 1198 c1 -49 11 -56 19 -13 3 13 2 22 -3 20 -4 -3 -10 5 -12 17
-3 13 -5 2 -4 -24z"/>
<path d="M1216 1224 c-9 -23 -8 -24 26 -24 30 0 31 0 13 20 -22 24 -31 25 -39
4z"/>
<path d="M1460 1229 c0 -5 -4 -7 -10 -4 -5 3 -10 1 -10 -4 0 -6 4 -11 9 -11 5
0 9 -6 8 -12 -1 -36 4 -47 18 -42 14 6 13 8 -2 21 -10 8 -12 12 -5 8 14 -7 17
11 2 20 -5 3 -7 12 -3 20 3 8 2 15 -1 15 -3 0 -6 -5 -6 -11z"/>
<path d="M960 1210 c14 -27 -4 -34 -87 -35 -71 0 -69 -14 3 -21 27 -2 60 -5
74 -6 23 -3 25 0 26 40 0 29 -4 42 -13 42 -11 0 -11 -5 -3 -20z"/>
<path d="M1415 1207 c4 -22 3 -27 -7 -21 -7 4 -6 -1 3 -12 20 -23 31 -55 20
-51 -5 1 -9 -2 -9 -8 0 -5 4 -9 9 -7 5 1 6 -10 3 -24 -5 -18 -3 -25 4 -20 14
9 11 -42 -4 -52 -6 -4 -4 -13 8 -24 14 -14 18 -15 18 -4 0 8 -6 17 -12 19 -8
4 -4 8 10 13 14 4 21 12 18 21 -3 7 -12 40 -21 72 -17 67 -51 148 -40 98z"/>
<path d="M1508 1208 c29 -15 28 -25 -7 -56 -28 -24 -29 -27 -15 -54 9 -16 23
-28 35 -28 11 0 24 -10 29 -22 l9 -23 0 23 c1 13 5 21 9 18 4 -2 14 -1 21 4
11 6 9 10 -8 19 -17 10 -21 9 -21 -4 0 -9 -6 -15 -12 -12 -7 2 -12 10 -10 16
1 6 -5 11 -13 11 -8 0 -15 -6 -16 -12 -1 -16 -17 22 -18 41 -1 8 2 12 5 9 8
-9 55 42 49 53 -4 5 6 9 21 9 42 0 24 8 -31 14 -41 4 -46 3 -27 -6z"/>
<path d="M1350 1191 c-5 -11 -10 -30 -9 -43 0 -20 2 -19 11 7 6 17 15 36 21
43 6 8 6 12 -1 12 -6 0 -16 -9 -22 -19z"/>
<path d="M313 1186 c-6 -8 -9 -22 -7 -33 4 -15 12 -18 36 -15 27 4 29 2 23
-17 -5 -16 -3 -20 10 -15 9 4 14 13 11 20 -6 17 26 19 55 4 14 -8 26 -7 46 4
l28 15 -25 2 c-14 1 -33 2 -42 1 -10 -1 -18 4 -18 11 0 8 -3 8 -9 -2 -6 -9
-18 -12 -37 -7 -21 6 -25 9 -14 16 8 5 11 13 6 17 -4 4 -13 0 -20 -9 -14 -20
-28 -14 -19 8 7 18 -8 18 -24 0z"/>
<path d="M493 1178 c2 -7 17 -12 32 -11 45 3 48 18 4 21 -30 2 -40 -1 -36 -10z"/>
<path d="M1282 1183 c-6 -2 -10 -9 -6 -14 3 -5 0 -9 -7 -9 -7 0 -4 -6 7 -14
19 -15 19 -15 -1 -30 -18 -14 -18 -15 -2 -16 9 0 17 5 17 10 0 6 10 15 23 20
l22 9 -24 0 c-20 1 -22 5 -17 26 4 14 5 25 4 24 -2 0 -9 -3 -16 -6z"/>
<path d="M2683 1133 l1 -52 58 6 c50 5 58 3 58 -11 0 -9 4 -16 9 -16 15 0 21
15 11 29 -8 15 -88 19 -109 7 -13 -8 -19 4 -24 54 -3 22 -4 16 -4 -17z"/>
<path d="M2918 1149 c-6 -33 17 -49 58 -41 l29 6 -35 6 c-26 4 -36 11 -40 30
l-6 25 -6 -26z"/>
<path d="M2166 1151 c-4 -6 -2 -11 3 -11 24 0 9 -20 -21 -30 -33 -10 -33 -10
6 -4 29 4 37 2 33 -8 -2 -7 -9 -12 -15 -11 -6 2 -9 -4 -5 -13 4 -11 8 -12 13
-4 6 9 9 9 14 -1 3 -8 4 6 2 30 -5 46 -19 71 -30 52z"/>
<path d="M1047 1144 c-9 -10 16 -32 30 -27 20 8 15 33 -5 33 -10 0 -21 -3 -25
-6z"/>
<path d="M1236 1126 c4 -16 1 -33 -7 -43 -10 -12 -10 -15 -1 -9 8 5 12 0 13
-16 1 -17 3 -18 6 -5 2 9 9 17 14 17 5 0 9 5 9 11 0 5 -4 7 -10 4 -6 -4 -10 6
-10 24 0 16 -5 33 -10 36 -7 4 -9 -2 -4 -19z"/>
<path d="M1567 1138 c-9 -6 -8 -8 3 -9 62 -4 88 -4 84 2 -6 11 -73 16 -87 7z"/>
<path d="M766 1129 c2 -4 0 -10 -5 -13 -11 -7 -3 -44 11 -52 5 -3 6 5 2 20 -3
15 -1 32 5 39 8 10 7 14 -4 14 -8 0 -12 -4 -9 -8z"/>
<path d="M895 1109 c4 -5 -2 -9 -12 -10 -10 -1 0 -6 22 -12 33 -10 40 -17 42
-40 1 -17 -2 -25 -9 -21 -6 4 -9 1 -6 -7 5 -15 7 -15 79 -17 l47 -2 0 -54 c0
-54 -1 -55 -32 -58 -25 -2 -31 -8 -33 -28 -1 -20 0 -21 3 -4 4 16 14 23 40 26
39 5 39 5 18 -27 -16 -25 -10 -32 13 -17 17 11 28 82 13 82 -9 0 -11 15 -7 58
3 31 3 51 0 45 -5 -14 -34 -16 -82 -7 -26 6 -31 11 -31 35 0 16 5 29 10 29 6
0 10 7 10 16 0 10 -6 14 -14 11 -8 -3 -29 -2 -46 3 -19 5 -28 5 -25 -1z"/>
<path d="M2057 1104 c-3 -3 3 -29 15 -58 33 -82 38 -104 25 -110 -7 -2 -2 -5
10 -5 20 -1 21 2 13 24 -5 14 -9 29 -8 33 1 4 -4 21 -12 37 -7 17 -18 42 -25
58 -6 15 -14 24 -18 21z"/>
<path d="M2590 1101 c0 -16 36 -40 48 -32 10 6 10 10 0 18 -19 15 -48 23 -48
14z"/>
<path d="M599 1074 c-19 -23 -89 -56 -104 -50 -8 3 -12 0 -10 -7 7 -19 -18
-44 -62 -62 -37 -15 -46 -25 -81 -98 -52 -108 -66 -146 -58 -154 3 -3 6 1 6
10 0 12 14 16 71 19 76 3 117 -4 88 -17 -15 -6 -15 -9 -2 -35 22 -45 29 -43
29 8 -1 35 3 46 13 44 7 -1 20 3 29 10 10 8 13 9 9 1 -5 -8 10 -10 58 -7 53 4
66 2 71 -11 3 -8 10 -15 15 -15 5 0 4 11 -3 25 -6 13 -15 22 -19 19 -5 -3 -9
4 -9 16 0 20 -1 20 -16 6 -9 -10 -32 -16 -57 -16 -44 1 -65 -2 -82 -11 -5 -3
-28 -2 -50 2 -22 3 -35 7 -28 8 7 0 10 8 6 18 -5 14 -8 13 -15 -6 -6 -18 -11
-20 -27 -11 -25 13 -34 13 -26 0 3 -6 -1 -7 -9 -4 -17 7 -19 14 -10 37 4 11
16 14 45 10 32 -5 39 -3 39 11 0 13 -4 15 -19 6 -29 -15 -37 -13 -38 12 -3 31
10 36 74 31 37 -3 53 -2 49 5 -8 14 11 25 26 16 7 -5 31 -10 53 -12 45 -4 57
-12 62 -44 4 -24 10 -34 18 -26 3 3 1 17 -4 31 -8 20 -7 27 7 33 9 4 20 7 24
6 4 -1 5 5 1 14 -3 9 -9 12 -12 7 -3 -5 -12 -8 -18 -7 -7 1 -22 2 -34 3 -11 0
-18 4 -16 9 3 4 -5 8 -16 9 -20 2 -64 8 -77 12 -3 0 -5 15 -6 32 -1 25 6 35
42 59 23 17 47 30 53 30 6 0 11 4 11 9 0 5 9 13 20 16 11 3 20 11 20 16 0 14
-16 11 -31 -7z m-145 -146 c3 -13 6 -29 6 -35 0 -19 -41 -16 -56 5 -11 14 -10
19 9 34 29 23 34 22 41 -4z"/>
<path d="M1360 1081 c0 -5 5 -22 10 -36 9 -23 13 -25 25 -15 17 14 20 30 6 30
-5 0 -12 -8 -15 -17 -3 -10 -4 -3 -2 15 2 21 -2 32 -11 32 -7 0 -13 -4 -13 -9z"/>
<path d="M1097 1063 c-13 -12 -7 -25 8 -20 8 4 17 1 21 -4 3 -6 17 -8 30 -5
27 7 35 -18 9 -28 -8 -3 -15 -2 -15 3 0 4 -12 6 -26 3 l-26 -5 31 -13 c27 -12
31 -18 31 -54 0 -22 5 -40 10 -40 12 0 12 4 1 53 -7 30 -6 40 5 44 8 3 14 12
14 19 0 8 7 17 15 20 26 10 16 23 -15 21 -16 -1 -30 -6 -30 -10 0 -5 -7 -1
-16 7 -16 17 -36 21 -47 9z"/>
<path d="M240 1052 c0 -4 5 -13 12 -20 13 -13 1 -17 -32 -12 -12 2 -11 -3 4
-19 11 -12 16 -29 13 -41 -8 -29 2 -25 15 8 10 25 12 39 9 77 -1 15 -21 22
-21 7z"/>
<path d="M2458 1039 c9 -11 20 -19 24 -19 4 0 6 8 5 19 -1 12 -9 19 -23 19
-20 0 -21 -2 -6 -19z"/>
<path d="M2134 1036 c-3 -8 -2 -22 3 -30 7 -14 10 -13 19 2 9 13 8 21 -2 30
-12 11 -15 10 -20 -2z"/>
<path d="M2797 1043 c-3 -5 -8 -41 -12 -80 l-7 -73 -34 0 c-31 0 -47 14 -24
22 6 2 6 8 0 18 -8 13 -10 13 -10 -1 0 -9 -11 -24 -25 -33 -28 -18 -75 -21
-75 -5 0 8 -5 8 -15 -1 -8 -7 -22 -10 -30 -6 -8 3 -15 1 -15 -4 0 -6 -3 -9 -7
-9 -5 1 -26 1 -48 0 -36 -2 -38 -3 -16 -12 22 -9 22 -11 8 -32 -15 -23 -87
-42 -97 -26 -11 17 -32 -9 -25 -31 5 -15 10 -19 15 -11 11 18 206 32 310 22
60 -6 65 -8 62 -28 -2 -13 1 -31 7 -40 8 -14 9 -11 8 17 l-2 35 79 -2 c64 -1
83 -5 93 -19 7 -10 13 -12 13 -6 0 7 11 12 25 12 16 0 25 6 25 15 0 8 -5 15
-11 15 -5 0 -7 -5 -3 -12 7 -11 -4 -10 -86 6 -9 2 -17 19 -21 47 l-6 44 -1
-37 c-2 -37 -3 -38 -44 -40 -24 -1 -52 -1 -63 0 -11 0 -41 2 -67 4 -27 2 -48
5 -48 8 0 4 -16 4 -35 2 -39 -5 -47 11 -17 34 15 12 13 12 -15 3 -18 -6 -31
-16 -30 -22 1 -7 -9 -12 -23 -12 -20 0 -25 5 -25 27 -1 25 2 27 57 33 66 8 82
2 68 -25 -14 -27 -12 -34 5 -20 8 7 13 16 10 20 -10 16 26 32 77 33 29 1 56 6
59 10 4 5 32 3 64 -4 50 -11 59 -11 69 2 9 13 15 13 36 2 30 -15 50 -17 50 -4
0 5 -12 11 -27 13 -19 2 -29 10 -31 23 -6 30 -24 45 -20 16 5 -36 -21 -47 -77
-31 l-47 13 4 69 c5 66 4 76 -5 61z"/>
<path d="M2233 1001 c6 -21 20 -44 31 -51 19 -12 20 -11 8 3 -9 10 -10 17 -2
22 5 3 10 12 9 18 0 9 -2 9 -6 0 -6 -17 -33 9 -33 31 0 9 -4 16 -9 16 -4 0 -4
-17 2 -39z"/>
<path d="M1345 1019 c-4 -6 -13 -8 -21 -5 -9 3 -16 -4 -20 -19 -7 -29 -20 -33
-28 -7 -3 10 -4 6 -3 -8 1 -14 8 -25 16 -25 8 0 16 -6 19 -14 3 -10 -2 -11
-19 -6 -23 7 -23 7 -4 -8 11 -9 21 -12 23 -7 2 5 10 6 18 3 12 -4 12 -1 -1 23
-22 42 -19 55 9 48 21 -5 25 -2 23 15 -1 24 -3 25 -12 10z"/>
<path d="M2180 1021 c0 -5 6 -12 13 -15 10 -5 10 -7 0 -12 -7 -3 -13 -11 -13
-16 0 -6 3 -8 7 -5 12 13 32 -43 23 -66 l-9 -22 -6 22 c-5 14 -12 20 -22 16
-13 -5 -15 -1 -11 19 4 19 1 25 -9 21 -18 -7 -16 -20 7 -43 12 -12 18 -25 15
-29 -4 -8 25 -20 48 -21 4 0 7 18 7 40 0 22 -4 40 -8 40 -7 0 -12 24 -15 68 0
14 -27 17 -27 3z"/>
<path d="M1505 1005 c4 -11 17 -46 29 -77 12 -33 28 -59 38 -61 15 -4 14 -1
-4 23 -23 32 -17 59 10 38 10 -6 -3 10 -28 37 -25 27 -47 52 -49 55 -2 3 -1
-4 4 -15z"/>
<path d="M2596 984 c-3 -12 -2 -33 3 -46 9 -20 10 -19 10 16 1 30 4 37 16 32
8 -3 15 0 15 7 0 22 -39 14 -44 -9z"/>
<path d="M2480 976 c0 -9 -8 -13 -22 -10 -13 2 -17 2 -10 -2 14 -7 16 -54 2
-54 -5 0 -10 -7 -10 -16 0 -10 7 -14 18 -12 9 2 16 10 15 16 -2 7 2 12 7 12 6
0 10 5 10 11 0 5 -4 7 -10 4 -5 -3 -10 -1 -10 4 0 6 4 11 8 11 4 0 9 11 10 25
1 14 0 25 -3 25 -3 0 -5 -6 -5 -14z"/>
<path d="M1490 965 c0 -22 23 -90 34 -100 7 -5 19 -29 26 -52 7 -24 17 -43 21
-43 11 0 -29 104 -42 108 -5 2 -9 10 -9 17 0 15 -29 84 -30 70z"/>
<path d="M1944 923 c-4 -21 -5 -40 -3 -43 7 -8 39 -7 39 2 0 4 -7 8 -15 8 -20
0 -19 17 3 29 10 6 12 11 4 11 -7 0 -11 4 -7 9 3 5 1 12 -4 16 -6 3 -13 -11
-17 -32z"/>
<path d="M2027 954 c-4 -4 -5 -16 -2 -28 2 -12 7 -42 10 -68 3 -27 11 -48 17
-48 6 0 7 8 3 18 -4 9 -9 42 -11 72 -5 58 -7 64 -17 54z"/>
<path d="M2310 888 c0 -5 9 -12 20 -15 11 -3 20 -8 20 -12 0 -3 20 -6 44 -6
38 0 42 2 33 17 -7 11 -16 14 -25 9 -16 -9 -52 -3 -52 8 0 4 -9 7 -20 8 -11 1
-20 -3 -20 -9z"/>
<path d="M147 876 c-9 -24 -10 -23 18 -28 17 -4 25 -1 25 8 0 8 -6 14 -14 14
-8 0 -16 5 -18 12 -3 7 -7 5 -11 -6z"/>
<path d="M542 838 c-17 -17 -15 -25 8 -50 11 -12 20 -17 20 -10 0 6 -5 14 -10
17 -7 5 -8 11 -1 19 14 17 -1 40 -17 24z"/>
<path d="M840 839 c-25 -9 -71 -84 -47 -76 7 2 13 13 15 25 5 31 27 46 50 33
15 -8 21 -7 25 4 4 10 1 12 -10 8 -11 -4 -14 -2 -9 5 4 7 6 12 4 11 -2 0 -14
-5 -28 -10z"/>
<path d="M665 811 c-7 -22 0 -41 15 -41 9 0 7 46 -2 56 -4 3 -9 -4 -13 -15z"/>
<path d="M931 798 c-5 -13 -5 -24 0 -26 21 -8 6 -22 -18 -18 -16 2 -31 5 -35
5 -5 1 -8 7 -8 15 0 28 -29 25 -44 -5 -8 -16 -10 -27 -5 -23 6 3 17 -2 24 -12
16 -21 20 -8 6 16 -15 22 0 34 15 12 14 -20 10 -52 -7 -52 -5 0 -9 -5 -9 -11
0 -5 5 -7 10 -4 6 3 10 0 11 -7 0 -7 6 3 12 22 10 29 16 35 38 32 25 -3 26 0
26 37 0 46 -4 51 -16 19z"/>
<path d="M2267 796 c-14 -35 7 -45 39 -20 12 10 14 14 4 11 -8 -2 -20 3 -26
11 -9 13 -12 13 -17 -2z"/>
<path d="M2054 749 c1 -23 6 -44 12 -46 6 -2 8 -17 6 -33 -3 -23 0 -30 12 -30
19 0 20 9 5 47 -7 15 -13 38 -15 50 -6 46 -20 55 -20 12z"/>
<path d="M2130 778 c0 -9 4 -19 10 -23 5 -3 7 -12 4 -20 -4 -8 -11 -12 -18 -8
-6 4 -5 -1 3 -10 12 -15 12 -17 -3 -11 -9 3 -16 1 -16 -5 0 -6 12 -11 26 -11
25 0 26 2 21 41 -6 42 -27 79 -27 47z"/>
<path d="M1575 747 c3 -10 5 -30 5 -45 0 -20 3 -23 12 -14 9 9 8 19 -5 44 -10
18 -15 25 -12 15z"/>
<path d="M2338 704 c15 -29 28 -45 30 -37 6 22 -27 90 -43 90 -10 0 -6 -15 13
-53z"/>
<path d="M2230 725 c0 -23 26 -65 40 -65 5 0 7 7 4 15 -4 8 -11 12 -17 8 -6
-4 -8 0 -4 9 3 9 -1 24 -8 35 -14 17 -14 17 -15 -2z"/>
<path d="M510 709 c0 -5 -5 -7 -12 -3 -7 5 -8 3 -4 -5 5 -7 14 -10 22 -7 8 3
14 1 14 -3 0 -5 7 -11 15 -15 13 -5 13 -2 -1 19 -17 26 -34 33 -34 14z"/>
<path d="M803 702 c11 -12 13 -22 6 -35 -11 -19 -2 -22 21 -7 11 7 11 10 2 10
-7 0 -10 5 -7 10 8 12 -12 40 -28 40 -5 0 -3 -8 6 -18z"/>
<path d="M910 710 c0 -5 9 -14 20 -20 29 -16 15 -41 -17 -29 -13 5 -26 9 -28
9 -2 0 2 -20 9 -45 8 -25 10 -43 6 -40 -5 3 -11 1 -14 -4 -4 -5 3 -12 14 -16
11 -4 18 -10 15 -15 -3 -5 -1 -27 4 -49 6 -29 5 -47 -4 -65 -12 -23 -11 -26 7
-31 11 -4 22 -4 25 -1 4 3 -2 6 -12 6 -13 0 -16 3 -9 10 6 6 21 6 42 1 40 -12
42 3 2 21 -30 13 -41 38 -17 38 9 0 9 2 0 8 -7 4 -12 16 -11 27 0 11 -9 45
-20 75 -21 56 -21 73 0 52 7 -7 15 -12 19 -12 14 0 16 50 2 70 -15 21 -33 27
-33 10z"/>
<path d="M587 659 c-12 -16 -19 -19 -34 -11 -16 9 -19 7 -20 -11 -2 -17 0 -19
7 -7 8 12 12 12 18 2 7 -10 13 -8 27 8 10 11 22 17 26 14 5 -3 9 2 9 10 0 22
-16 20 -33 -5z"/>
<path d="M1721 661 c-8 -14 -7 -22 4 -31 8 -7 15 -21 15 -31 0 -21 75 -73 91
-63 6 3 -8 16 -30 27 -23 11 -41 26 -41 33 0 7 -7 20 -16 28 -9 10 -13 24 -9
36 8 25 -1 26 -14 1z"/>
<path d="M2511 663 c-1 -14 -8 -22 -18 -22 -38 -1 -52 -5 -47 -12 2 -4 -2 -10
-8 -12 -8 -3 -6 -6 5 -6 9 -1 17 3 17 7 0 9 115 7 198 -3 28 -4 52 -3 52 2 0
4 -12 9 -27 9 -80 4 -109 8 -120 16 -7 5 -17 7 -23 3 -5 -3 -14 4 -19 17 -10
23 -10 23 -10 1z"/>
<path d="M2930 653 c-1 -18 -3 -39 -4 -45 -2 -18 -52 -22 -67 -6 -7 8 -26 12
-46 10 -23 -3 -33 0 -33 9 0 11 -2 11 -10 -1 -7 -12 -10 -8 -10 15 l0 30 -13
-25 c-15 -29 -7 -35 64 -44 24 -2 60 -9 79 -15 23 -7 36 -8 38 -1 2 6 15 1 29
-10 14 -11 30 -20 34 -20 18 0 8 16 -20 32 -24 13 -30 24 -34 60 -3 37 -4 39
-7 11z"/>
<path d="M840 641 c-14 -26 -13 -71 2 -71 6 0 9 3 6 6 -4 3 2 14 12 24 11 11
16 27 13 39 -7 26 -19 27 -33 2z"/>
<path d="M2143 648 c-35 -17 -26 -48 15 -54 9 -2 10 1 3 10 -6 7 -8 16 -4 20
6 6 14 37 10 35 -1 0 -12 -5 -24 -11z"/>
<path d="M2266 634 c-2 -6 12 -16 32 -22 29 -9 34 -9 21 1 -9 7 -14 17 -12 22
5 15 -35 14 -41 -1z"/>
<path d="M1973 628 c-4 -7 -6 -20 -5 -30 2 -9 -2 -19 -8 -23 -5 -3 -10 -16
-10 -27 0 -12 3 -19 6 -15 4 3 19 0 35 -8 36 -19 39 -19 39 5 0 11 7 20 15 20
17 0 19 18 6 38 -6 10 -11 6 -19 -17 -13 -38 -38 -40 -45 -4 -3 19 2 33 19 50
l23 23 -24 0 c-13 0 -27 -6 -32 -12z"/>
<path d="M2196 632 c-3 -6 0 -13 6 -15 10 -4 10 -6 1 -6 -18 -1 -16 -21 2 -21
8 0 15 5 15 11 0 7 10 9 26 5 24 -6 25 -6 10 9 -9 9 -21 13 -27 9 -6 -3 -15
-1 -19 6 -5 8 -10 9 -14 2z"/>
<path d="M2350 629 c-21 -6 -11 -14 13 -10 5 1 7 -6 5 -16 -2 -10 -11 -17 -21
-17 -18 2 -23 -11 -8 -20 13 -9 43 30 39 51 -2 15 -8 18 -28 12z"/>
<path d="M1700 621 c0 -7 -4 -9 -10 -6 -5 3 -10 1 -10 -4 0 -6 -10 -11 -22
-11 -27 0 -21 -5 15 -14 18 -4 26 -3 23 3 -4 5 4 11 16 13 19 3 20 4 5 17 -12
9 -17 10 -17 2z"/>
<path d="M2080 585 c0 -23 6 -38 15 -41 10 -4 13 -13 10 -24 -5 -17 -3 -17 30
-7 30 9 35 15 33 34 -4 31 -22 30 -26 -2 -2 -14 -7 -25 -11 -25 -13 0 -34 48
-28 64 4 9 2 16 -4 16 -6 0 -7 5 -4 10 3 6 1 10 -4 10 -6 0 -11 -16 -11 -35z"/>
<path d="M1774 598 c-3 -4 4 -8 16 -8 12 0 30 -5 40 -10 16 -8 18 -8 14 5 -4
8 -9 15 -13 16 -40 5 -53 4 -57 -3z"/>
<path d="M1885 600 l-40 -7 48 -2 c26 0 47 4 47 9 0 6 -3 9 -7 9 -5 -1 -26 -5
-48 -9z"/>
<path d="M2640 600 c-3 -22 0 -93 6 -111 4 -15 77 -37 149 -45 16 -1 53 -10
80 -18 66 -21 78 -20 35 2 -19 10 -34 23 -33 29 8 40 12 96 7 90 -4 -3 -8 -17
-10 -29 -6 -42 -10 -57 -16 -63 -3 -3 -27 -1 -54 6 -27 6 -60 12 -74 14 -14 1
-30 3 -37 3 -18 3 -36 41 -44 92 -3 25 -7 38 -9 30z"/>
<path d="M1500 566 c0 -14 -4 -28 -10 -31 -16 -10 -11 -27 7 -23 12 2 18 14
19 41 2 20 -1 37 -7 37 -5 0 -9 -11 -9 -24z"/>
<path d="M1586 570 c-21 -13 -34 -16 -42 -9 -8 6 -14 5 -18 -6 -3 -8 -2 -15 2
-16 4 0 17 -2 29 -5 12 -2 24 0 28 5 7 13 45 1 45 -14 0 -7 7 -18 15 -25 12
-10 15 -9 15 5 0 13 5 16 23 11 12 -3 36 -6 54 -6 17 0 38 -7 47 -15 8 -8 25
-15 38 -15 21 0 21 1 -7 16 -36 20 -167 45 -158 31 3 -6 1 -7 -5 -3 -7 4 -12
14 -12 22 0 8 -7 14 -15 14 -8 0 -15 5 -15 11 0 5 5 7 12 3 7 -4 8 -3 4 4 -4
7 -8 12 -9 11 -1 0 -15 -9 -31 -19z"/>
<path d="M974 565 c-9 -23 3 -30 23 -14 10 7 15 10 11 5 -9 -11 20 -40 41 -41
55 -4 54 -4 40 -22 -12 -16 -12 -17 2 -6 9 7 19 9 24 5 4 -4 6 -1 3 7 -2 7
-22 21 -43 29 -22 9 -42 19 -45 22 -3 4 -15 12 -28 19 -18 10 -23 9 -28 -4z"/>
<path d="M1283 560 c-12 -10 -19 -21 -15 -24 3 -4 0 -12 -8 -17 -12 -9 -12
-10 3 -5 10 3 25 6 33 6 8 0 11 6 7 17 -5 13 -3 15 13 9 31 -12 36 -12 41 4 4
13 3 13 -6 0 -7 -10 -11 -11 -11 -3 0 24 -34 32 -57 13z"/>
<path d="M828 539 c-16 -11 -28 -27 -28 -35 0 -8 -7 -28 -15 -43 -14 -28 -14
-29 15 -41 28 -12 34 -35 6 -24 -7 3 -13 -2 -13 -11 0 -19 11 -19 27 0 7 8 19
15 26 15 16 0 19 16 5 24 -5 4 -20 7 -34 8 -29 3 -25 25 7 38 19 8 20 9 2 9
-19 1 -19 2 2 21 12 11 27 20 34 20 9 0 9 3 -2 10 -10 6 -11 10 -2 10 6 0 12
5 12 10 0 15 -12 12 -42 -11z"/>
<path d="M1136 548 c3 -4 -5 -8 -17 -8 -12 0 -19 -3 -16 -7 4 -3 20 -6 37 -5
29 1 40 -11 20 -23 -17 -11 -11 -28 8 -20 9 4 31 11 47 15 l30 8 -32 1 c-37 1
-40 7 -17 32 14 15 12 17 -25 16 -22 0 -38 -4 -35 -9z"/>
<path d="M1380 525 c-13 -14 -18 -25 -11 -25 6 0 14 7 18 16 4 11 13 14 29 10
14 -4 24 -2 24 4 0 6 -4 8 -10 5 -5 -3 -10 -1 -10 4 0 18 -15 12 -40 -14z"/>
<path d="M2186 534 c-8 -20 -8 -19 26 -28 25 -6 26 -5 15 19 -14 29 -32 32
-41 9z"/>
<path d="M1440 515 c-9 -10 -9 -15 -1 -15 6 0 11 -7 11 -15 0 -8 -4 -15 -9
-15 -5 0 -14 7 -21 15 -7 8 -17 15 -22 15 -5 0 0 -9 10 -21 15 -15 26 -18 47
-13 18 5 30 2 36 -7 7 -11 9 -11 9 -1 0 7 -7 15 -15 18 -8 4 -15 14 -15 24 0
26 -15 33 -30 15z"/>
<path d="M160 509 c0 -6 -6 -9 -14 -6 -8 3 -16 -2 -19 -12 -4 -17 -2 -17 22
-5 14 8 32 14 39 14 7 0 10 5 7 10 -8 14 -35 13 -35 -1z"/>
<path d="M604 509 c-3 -6 -14 -9 -23 -6 -11 3 -16 -3 -17 -20 -1 -12 2 -23 8
-23 5 0 7 4 3 9 -3 5 3 12 14 16 11 3 22 12 25 20 6 17 0 20 -10 4z"/>
<path d="M2570 500 c0 -6 5 -8 10 -5 6 3 10 2 10 -3 0 -13 29 -24 42 -16 14 9
-4 24 -35 30 -16 2 -27 0 -27 -6z"/>
<path d="M1879 465 c19 -9 39 -13 45 -11 6 3 5 5 -2 5 -7 1 -11 5 -8 9 2 4
-12 9 -32 10 l-37 2 34 -15z"/>
<path d="M470 452 c0 -4 5 -13 12 -20 8 -8 8 -15 -2 -27 -13 -16 -10 -18 14
-9 14 5 14 9 0 35 -14 28 -24 37 -24 21z"/>
<path d="M1984 425 c18 -14 16 -15 -32 -15 -28 0 -62 5 -76 11 -14 7 -33 8
-43 4 -27 -12 53 -24 157 -23 47 0 74 3 60 5 -14 3 -29 8 -35 12 -5 5 -19 11
-30 14 -20 7 -20 7 -1 -8z"/>
<path d="M1185 420 c-3 -5 -12 -7 -20 -4 -7 3 -21 1 -31 -4 -14 -8 -10 -11 20
-16 36 -7 40 -12 37 -51 -2 -15 0 -17 7 -6 7 9 12 10 16 2 4 -6 24 -10 44 -9
33 1 34 2 7 5 -27 3 -49 26 -73 75 -2 3 7 8 20 11 22 4 22 4 1 6 -12 0 -24 -3
-28 -9z"/>
<path d="M590 406 c9 -12 8 -17 -9 -28 -15 -9 -17 -15 -9 -25 12 -15 32 -18
23 -3 -3 6 -3 15 1 21 4 8 11 5 18 -9 8 -16 15 -19 26 -12 13 8 12 10 -2 10
-12 0 -18 8 -18 24 0 13 -7 27 -16 30 -24 9 -28 7 -14 -8z"/>
<path d="M1789 396 c-3 -4 -79 -14 -154 -21 -11 -1 -28 -5 -39 -10 -10 -5 -21
-4 -25 2 -10 16 -45 23 -61 13 -12 -8 -11 -10 7 -10 12 0 23 -5 25 -12 3 -9
27 -9 104 1 54 7 119 15 143 18 30 4 39 8 30 14 -16 10 -24 11 -30 5z"/>
<path d="M810 353 c-11 -8 -20 -11 -20 -7 0 3 -7 1 -15 -6 -8 -7 -13 -20 -12
-31 4 -21 17 -38 17 -21 0 15 47 16 52 1 2 -7 18 -3 42 11 27 15 42 18 49 11
6 -6 15 -11 20 -11 5 0 1 7 -7 16 -14 14 -21 14 -59 2 -42 -13 -97 -13 -97 1
0 13 60 42 72 35 21 -13 115 -10 115 3 0 18 -131 14 -157 -4z"/>
<path d="M2094 358 c-3 -4 0 -8 5 -8 6 0 11 -9 11 -19 0 -20 -2 -21 -125 -37
-44 -6 -48 -5 -37 8 10 12 10 17 -1 26 -23 19 -58 9 -73 -20 -9 -18 -22 -28
-37 -28 -12 1 -49 -3 -82 -9 -113 -17 -195 -22 -195 -11 0 5 5 10 12 10 6 0 8
3 5 7 -4 3 -17 -3 -30 -14 -18 -16 -48 -22 -152 -33 -71 -7 -137 -14 -145 -15
-8 -2 -44 -6 -80 -10 -64 -7 -66 -6 -80 19 -16 31 -11 30 -203 10 -82 -8 -156
-13 -163 -10 -18 7 -18 8 11 -56 24 -52 76 -117 59 -75 -3 9 -11 17 -18 18 -6
0 -2 5 9 10 19 9 18 9 -2 5 -23 -4 -26 2 -26 49 1 32 2 35 16 29 8 -3 26 0 41
6 17 6 25 6 21 0 -3 -6 -1 -10 4 -10 6 0 11 5 11 10 0 7 16 9 42 6 23 -3 48
-1 55 6 10 8 13 6 13 -6 0 -15 3 -15 30 -1 30 15 81 20 93 8 4 -3 2 -12 -4
-20 -9 -10 -6 -13 17 -15 16 -1 39 -1 52 0 12 0 22 -3 22 -9 0 -5 5 -9 11 -9
5 0 8 3 6 8 -3 4 7 8 21 9 15 1 42 4 60 6 23 4 32 1 32 -9 0 -8 6 -11 15 -8 8
4 12 11 9 16 -4 6 4 8 22 4 17 -4 55 2 91 13 35 11 65 15 68 10 3 -5 26 -6 50
-2 36 4 46 2 51 -11 3 -9 10 -13 16 -10 5 3 1 12 -9 19 -17 13 -16 14 11 24
18 7 40 8 60 3 18 -5 42 -5 56 0 14 5 33 7 42 4 10 -2 18 0 18 6 0 6 7 7 16 4
10 -4 13 -2 8 7 -5 9 -4 9 5 1 14 -13 51 -7 51 8 0 6 6 8 14 5 8 -3 16 -1 18
5 2 6 13 8 26 4 12 -4 20 -12 17 -17 -4 -5 -1 -9 4 -9 6 0 11 4 11 8 0 5 19 9
43 10 32 0 37 -1 22 -8 -16 -7 -17 -9 -3 -9 9 -1 20 4 23 9 3 6 13 10 21 10 8
0 23 9 34 20 11 11 30 20 43 20 18 0 19 2 7 10 -13 8 -12 10 3 10 10 0 16 4
13 9 -8 12 -76 19 -82 9z"/>
<path d="M1166 339 c4 -8 -3 -9 -25 -4 -20 4 -37 2 -46 -5 -8 -7 -23 -9 -32
-6 -17 6 -17 5 -1 -7 9 -7 18 -26 20 -42 2 -19 10 -31 21 -33 22 -4 22 21 1
43 -22 21 -5 39 38 39 28 1 56 26 28 26 -6 0 -8 -5 -4 -11z"/>
<path d="M1305 339 c-2 -3 20 -6 49 -6 55 0 76 -7 76 -24 0 -6 -14 -7 -35 -3
-19 3 -35 2 -35 -2 0 -5 26 -10 58 -11 l57 -3 -25 21 c-14 12 -24 25 -23 30 3
9 -116 8 -122 -2z"/>
<path d="M725 296 c-11 -8 -25 -12 -32 -9 -15 6 -18 -23 -3 -32 6 -3 10 -1 10
4 0 6 6 11 13 11 7 0 18 9 25 20 14 24 12 25 -13 6z"/>
<path d="M4 155 c0 -77 2 -107 3 -67 2 40 2 103 0 140 -2 37 -3 4 -3 -73z"/>
<path d="M1745 113 c27 -24 27 -26 7 -21 -12 4 -20 3 -17 -2 7 -12 41 -18 55
-10 8 5 2 13 -19 26 -17 10 -31 22 -31 26 0 4 -6 8 -12 8 -7 0 1 -13 17 -27z"/>
<path d="M1968 94 c19 -9 14 -22 -10 -27 -18 -4 -16 -5 7 -5 17 0 41 -4 54 -8
l24 -7 -20 20 c-12 12 -32 24 -45 27 -12 3 -17 3 -10 0z"/>
<path d="M258 3 c23 -2 59 -2 80 0 20 2 1 4 -43 4 -44 0 -61 -2 -37 -4z"/>
<path d="M638 3 c29 -2 74 -2 100 0 26 2 2 3 -53 3 -55 0 -76 -1 -47 -3z"/>
</g>
</svg>
